<svg xmlns="http://www.w3.org/2000/svg" viewBox="0 0 512 512" enable-background="new 0 0 512 512"><path fill="#FF8087" d="M412.88 401.24l-85.3-30.1H184.42l-85.28 30.1c-19.8 7-33.06 25.7-33.06 46.72v39.27c0 13.68 11.1 24.77 24.78 24.77h330.32c13.68 0 24.77-11.1 24.77-24.77v-39.27c0-21-13.24-39.73-33.05-46.72z"/><path fill="#E6646E" d="M218.38 479.08l33.6-8.4c1.32-.33 2.67-.5 4.02-.5 1.35 0 2.7.17 4 .5l33.62 8.4c3.94 1 8 1.5 12.04 1.5 20.06 0 38.03-12 45.77-30.6 8.53-20.44 13-42.97 13.2-65.78l-37.05-13.07H184.4L147.4 384.2c.2 22.8 4.65 45.34 13.18 65.8 7.75 18.57 25.72 30.57 45.78 30.57 4.04 0 8.1-.5 12.04-1.5z"/><path fill="#FFE17D" d="M347.87 373.04c-.4-6.7-4.77-12.53-11.1-14.74l-31.23-10.62h-99.08l-31.23 10.62c-6.33 2.2-10.7 8.05-11.1 14.74-1.76 29.88 4.75 54 11.68 70.6 6.32 15.13 22.67 23.4 38.58 19.42l33.6-8.4c5.27-1.32 10.77-1.32 16.03 0l33.63 8.4c15.9 3.98 32.25-4.3 38.56-19.43 6.92-16.6 13.44-40.7 11.67-70.6z"/><path fill="#FFD164" d="M256 437.68c36.48 0 66.06-29.58 66.06-66.07v-18.3l-16.52-5.6h-99.08l-16.52 5.6v18.3c0 36.5 29.57 66.08 66.06 66.08z"/><path fill="#B67F5F" d="M256 421.16c-27.37 0-49.55-22.18-49.55-49.55v-66.05h99.1v66.06c0 27.38-22.2 49.56-49.55 49.56z"/><path fill="#A06E50" d="M206.45 336.27c15.25 6.74 32 10.57 49.55 10.57s34.3-3.83 49.55-10.57v-30.72h-99.1v30.72z"/><path fill="#6E5A64" d="M272.52 66.06h-33.04c-18.24 0-33.03-14.78-33.03-33.03C206.45 14.8 221.25 0 239.48 0h33.04c18.24 0 33.03 14.8 33.03 33.03 0 18.24-14.8 33.03-33.03 33.03z"/><path fill="#84737B" d="M305.55 247.74h-99.1c-54.73 0-99.1-44.37-99.1-99.1s44.37-99.1 99.1-99.1h99.1c54.73 0 99.1 44.37 99.1 99.1 0 54.74-44.37 99.1-99.1 99.1z"/><path fill="#6E5A64" d="M305.55 231.23h-99.1c-36.48 0-66.06-29.58-66.06-66.07 0-36.48 29.57-66.06 66.05-66.06h99.1c36.48 0 66.06 29.58 66.06 66.06 0 36.5-29.56 66.07-66.05 66.07z"/><path fill="#CD916E" d="M366.3 189.94c-6.18 0-11.2-5.02-11.2-11.2v-13.58c0-27.36-22.2-49.55-49.55-49.55h-99.1c-27.36 0-49.55 22.2-49.55 49.56v13.57c0 6.2-5 11.2-11.2 11.2-10.8 0-20.64 7.77-21.72 18.52-1.24 12.36 8.43 22.78 20.54 22.78h4.54c4.23 55.4 50.44 99.1 106.94 99.1s102.7-43.68 106.94-99.1h4.54c12.1 0 21.78-10.42 20.54-22.78-1.07-10.74-10.92-18.5-21.7-18.5z"/><g fill="#B67F5F"><path d="M305.55 115.6h-99.1c-27.36 0-49.55 22.2-49.55 49.56v13.57c0 6.27-5.14 11.15-11.4 11.2-10.73.1-20.45 7.84-21.52 18.52-1.24 12.36 8.43 22.78 20.54 22.78h4.54c4.23 55.4 50.44 99.1 106.94 99.1 5.65 0 11.16-.56 16.57-1.4-51.46-7.94-90.9-52.3-90.9-105.96v-49.55c0-22.8 18.5-41.3 41.3-41.3h74.32c8.86 0 16.04-7 16.43-15.78-2.67-.44-5.4-.73-8.18-.73zM206.45 198.2c10.73 0 19.8 6.9 23.24 16.45.92-2.6 1.52-5.38 1.52-8.3 0-13.67-11.1-24.78-24.77-24.78s-24.77 11.1-24.77 24.77c0 2.93.6 5.7 1.54 8.3 3.43-9.55 12.5-16.45 23.23-16.45zM305.55 198.2c10.73 0 19.8 6.9 23.23 16.45.94-2.6 1.54-5.38 1.54-8.3 0-13.67-11.1-24.78-24.77-24.78-13.66 0-24.78 11.1-24.78 24.77 0 2.93.6 5.7 1.54 8.3 3.45-9.55 12.52-16.45 23.25-16.45z"/></g><path fill="#A06E50" d="M256 281.5c-12.4 0-23.82-3.97-30.57-10.63-3.25-3.2-3.3-8.43-.1-11.68 3.2-3.26 8.43-3.3 11.7-.1 2.74 2.72 9.36 5.9 18.97 5.9 9.6 0 16.22-3.18 18.97-5.9 3.26-3.2 8.5-3.15 11.68.1 3.2 3.24 3.17 8.47-.08 11.67-6.75 6.66-18.18 10.64-30.57 10.64z"/><g fill="#5A4650"><path d="M206.45 215.3c-4.56 0-8.26-3.68-8.26-8.24v-8.26c0-4.57 3.7-8.26 8.25-8.26s8.26 3.7 8.26 8.26v8.26c0 4.56-3.68 8.25-8.25 8.25zM305.55 215.3c-4.57 0-8.26-3.68-8.26-8.24v-8.26c0-4.57 3.68-8.26 8.25-8.26 4.56 0 8.26 3.7 8.26 8.26v8.26c0 4.56-3.7 8.25-8.25 8.25zM272.52 206.34h-33.04c-4.56 0-8.25-3.7-8.25-8.26s3.7-8.26 8.25-8.26h33.04c4.56 0 8.25 3.7 8.25 8.26s-3.7 8.26-8.25 8.26z"/></g><path fill="#FFD164" d="M256 495.48c-4.57 0-8.3-3.7-8.3-8.25s3.65-8.26 8.22-8.26h.08c4.56 0 8.26 3.7 8.26 8.26s-3.7 8.25-8.26 8.25z"/><g fill="#6E5A64"><path d="M206.45 247.63c-22.76 0-41.3-18.53-41.3-41.3s18.53-41.28 41.3-41.28 41.3 18.52 41.3 41.3-18.53 41.28-41.3 41.28zm0-66.06c-13.66 0-24.77 11.1-24.77 24.77s11.1 24.77 24.77 24.77 24.78-11.1 24.78-24.76c0-13.66-11.12-24.78-24.78-24.78zM305.55 247.63c-22.77 0-41.3-18.53-41.3-41.3s18.53-41.28 41.3-41.28c22.76 0 41.3 18.52 41.3 41.3s-18.54 41.28-41.3 41.28zm0-66.06c-13.66 0-24.78 11.1-24.78 24.77s11.12 24.77 24.78 24.77c13.66 0 24.77-11.1 24.77-24.76 0-13.66-11.1-24.78-24.77-24.78z"/></g><g fill="#E6646E"><path d="M140.4 511.88v-24.5c0-12.77-5.76-24.6-15.8-32.47l-47.78-37.56c-3.47 4.4-6.24 9.32-8.06 14.67l45.64 35.9c6.02 4.72 9.47 11.82 9.47 19.47v24.5c0 .05.02.1.02.13h16.46c0-.04.03-.08.03-.12zM371.6 511.88v-24.5c0-12.77 5.76-24.6 15.8-32.47l47.78-37.56c3.47 4.4 6.24 9.32 8.06 14.67l-45.64 35.9c-6.02 4.72-9.47 11.82-9.47 19.47v24.5c0 .05-.03.1-.03.13h-16.46c0-.04-.03-.08-.03-.12z"/></g></svg>