<svg xmlns="http://www.w3.org/2000/svg" viewBox="0 0 512 512" enable-background="new 0 0 512 512"><path fill="#F5DCB4" d="M420.58 401.22l-55.35-17.03c-10.48-3.23-17.63-12.92-17.63-23.9v-39.83c0-4.6-3.73-8.32-8.33-8.32H172.73c-4.6 0-8.33 3.72-8.33 8.32v39.84c0 10.98-7.15 20.66-17.64 23.9L91.43 401.2c-20.97 6.45-35.27 25.82-35.27 47.75v38.05c0 13.8 11.18 24.98 24.98 24.98h349.74c13.8 0 24.98-11.2 24.98-24.98v-38.04c0-21.94-14.3-41.3-35.27-47.76z"/><path fill="#EBC9A0" d="M147.6 383.86c12.92 35.42 56.5 61.52 108.4 61.52s95.48-26.1 108.4-61.52c-10-3.48-16.8-12.88-16.8-23.55v-39.83c0-4.6-3.73-8.32-8.33-8.32H172.73c-4.6 0-8.33 3.72-8.33 8.32v39.84c0 10.68-6.8 20.08-16.8 23.56z"/><path fill="#D2B496" d="M339.27 312.15H172.73c-2.42 0-4.56 1.07-6.08 2.7 19.52 28.5 52.28 47.26 89.35 47.26s69.83-18.74 89.35-47.24c-1.52-1.65-3.66-2.7-6.08-2.7z"/><path fill="#F5B97D" d="M368.42 170.58h-4.17V87.3h-216.5v83.28h-4.17c-11.45 0-20.82 9.37-20.82 20.82s9.37 20.82 20.82 20.82h4.6C152.42 268.1 199 312.15 256 312.15s103.57-44.05 107.83-99.93h4.6c11.44 0 20.8-9.37 20.8-20.82s-9.36-20.82-20.8-20.82z"/><g fill="#5A4650"><path d="M206.03 196.3c-4.6 0-8.32-3.74-8.32-8.34v-8.33c0-4.6 3.73-8.32 8.34-8.32s8.32 3.74 8.32 8.33v8.33c0 4.6-3.72 8.33-8.33 8.33zM305.96 196.3c-4.6 0-8.32-3.74-8.32-8.34v-8.33c0-4.6 3.72-8.32 8.32-8.32s8.33 3.74 8.33 8.33v8.33c0 4.6-3.74 8.33-8.34 8.33z"/></g><g fill="#6E5A64"><path d="M214.36 162.26H197.7c-4.6 0-8.32-3.73-8.32-8.33s3.73-8.33 8.33-8.33h16.66c4.6 0 8.33 3.73 8.33 8.33s-3.73 8.33-8.34 8.33zM314.3 162.26h-16.66c-4.6 0-8.33-3.73-8.33-8.33s3.73-8.33 8.34-8.33h16.65c4.6 0 8.32 3.73 8.32 8.33s-3.73 8.33-8.33 8.33z"/></g><path fill="#E3AA75" d="M322.62 95.64V87.3H147.74v83.28h-3.43c-9.47 0-18.32 6-20.78 15.17-3.7 13.85 6.77 26.47 20.06 26.47h4.6C152.42 268.1 199 312.14 256 312.14c5.7 0 11.25-.55 16.7-1.4-51.88-8-91.65-52.72-91.65-106.85v-49.97c0-23 18.65-41.64 41.64-41.64h83.26c9.2 0 16.66-7.46 16.66-16.66z"/><path fill="#5A4650" d="M197.7 14.14C156.8 22.6 127.33 61 131.9 104.36l7.03 66.7 8.6-.16c9.06-.17 16.32-7.58 16.32-16.65v-33.63c0-13.8 11.18-24.98 24.98-24.98h92.15l-83.27-81.5z"/><path fill="#84737B" d="M322.62 220.55H189.38c-13.8 0-24.98 11.18-24.98 24.98v8.32c0 50.6 41 91.6 91.6 91.6 50.6 0 91.6-41 91.6-91.6v-8.32c0-13.8-11.2-24.98-24.98-24.98z"/><path fill="#E3AA75" d="M256 270.5c-12.5 0-24.02-4-30.83-10.72-3.28-3.22-3.3-8.5-.08-11.77 3.22-3.27 8.5-3.3 11.76-.07 2.78 2.73 9.45 5.93 19.14 5.93s16.36-3.2 19.13-5.93c3.27-3.23 8.55-3.2 11.78.08 3.24 3.28 3.2 8.56-.07 11.78-6.8 6.72-18.34 10.73-30.83 10.73z"/><g fill="#6E5A64"><path d="M206.03 253.85v-8.32c0-13.8 11.2-24.98 25-24.98h-41.65c-13.8 0-24.98 11.18-24.98 24.98v8.32c0 50.6 41 91.6 91.6 91.6 7.17 0 14.12-.9 20.82-2.46-40.54-9.45-70.78-45.73-70.78-89.15zM372.5 171.07l7.05-66.7c5.2-49.18-33.36-92-82.8-92h-82.4c-21.34 0-45.74-3.05-60.17-11.73-3.06-1.84-7 .52-7 4.1.1 24.56 11.68 90.9 133.8 90.9h41.64c13.8 0 24.98 11.18 24.98 24.98v33.63c0 9.07 7.26 16.48 16.33 16.65l8.58.17z"/></g></svg>