<svg xmlns="http://www.w3.org/2000/svg" viewBox="0 0 512 512" enable-background="new 0 0 512 512"><path fill="#EDEBED" d="M418.63 394.18L313.8 363.36H198.2L93.38 394.18c-21.1 6.2-35.57 25.56-35.57 47.54v45.5c0 13.7 11.1 24.78 24.78 24.78h346.84c13.68 0 24.77-11.1 24.77-24.77v-45.5c0-22-14.5-41.34-35.57-47.55z"/><path fill="#DBD9DC" d="M256 429.42c42.03 0 79.18-21.1 101.58-53.2l-43.77-12.87H198.2l-43.78 12.88c22.4 32.1 59.55 53.2 101.58 53.2z"/><path fill="#FF8250" d="M123.87 385.2V512h57.8V368.2z"/><path fill="#DC7346" d="M181.68 404.46V368.2l-27.27 8.03c7.55 10.8 16.78 20.3 27.28 28.23z"/><path fill="#FF8250" d="M388.13 385.2V512h-57.8V368.2z"/><path fill="#DC7346" d="M357.58 376.23l-27.26-8.02v36.26c10.5-7.92 19.73-17.43 27.26-28.23z"/><path fill="#EDEBED" d="M148.65 107.36h214.7v49.55h-214.7z"/><path fill="#CD916E" d="M367.48 198.2h-4.13v-41.3h-214.7v41.3h-4.13c-11.4 0-20.65 9.24-20.65 20.64s9.24 20.64 20.65 20.64h4.12v24.78h214.7v-24.78h4.14c11.4 0 20.65-9.24 20.65-20.64s-9.24-20.65-20.65-20.65z"/><path fill="#B67F5F" d="M363.36 156.9H148.64v41.3h-2.95c-10.8 0-20.65 7.76-21.72 18.5-1.24 12.37 8.43 22.78 20.54 22.78h4.13v24.78h33.03v-41.3c0-27.36 22.18-49.54 49.55-49.54h132.12V156.9z"/><path fill="#64505A" d="M256 412.9c-59.3 0-107.36-48.06-107.36-107.35v-57.8h214.72v57.8c0 59.3-48.07 107.35-107.36 107.35z"/><g fill="#5A4650"><path d="M206.45 222.97c-4.56 0-8.26-3.7-8.26-8.26v-8.25c0-4.56 3.7-8.26 8.25-8.26s8.26 3.7 8.26 8.25v8.26c0 4.57-3.68 8.27-8.25 8.27zM305.55 222.97c-4.57 0-8.26-3.7-8.26-8.26v-8.25c0-4.56 3.68-8.26 8.25-8.26 4.56 0 8.26 3.7 8.26 8.25v8.26c0 4.57-3.7 8.27-8.25 8.27z"/></g><path fill="#CD916E" d="M256 297.3c-12.4 0-23.82-4-30.57-10.65-3.25-3.2-3.3-8.43-.08-11.67 3.2-3.25 8.44-3.3 11.67-.1 2.75 2.73 9.37 5.9 18.98 5.9 9.6 0 16.22-3.17 18.97-5.88 3.24-3.2 8.48-3.17 11.68.08 3.2 3.24 3.17 8.47-.08 11.67-6.75 6.67-18.18 10.64-30.57 10.64z"/><path fill="#FF9664" d="M363.23 198.2c-17.9-8.78-109.95-60.83-189.8-177.38C197.02 7.68 225.35 0 255.86 0c82.1 0 148.65 55.46 148.65 123.87 0 27.9-11.07 55-29.73 75.7 0 0-6.8.96-11.57-1.38z"/><path fill="#FF8250" d="M148.65 198.2c17.9-8.78 109.95-60.83 189.8-177.38C314.85 7.68 286.5 0 256 0c-82.1 0-148.65 55.46-148.65 123.87 0 27.9 11.07 55 29.74 75.7 0 0 6.78.96 11.55-1.38z"/><path fill="#5A4650" d="M181.68 305.55v-57.8h-33.03v57.8c0 59.3 48.06 107.35 107.35 107.35 5.63 0 11.12-.56 16.52-1.4-51.43-7.96-90.84-52.3-90.84-105.95z"/><g fill="#fff"><circle cx="256" cy="445.94" r="8.258"/><circle cx="256" cy="487.23" r="8.258"/></g><path fill="#DBD9DC" d="M123.87 437.68V512H99.1v-49.55c0-13.68 11.1-24.77 24.77-24.77z"/><path fill="#DC7346" d="M123.87 512h16.52v-57.8c0-9.13-7.4-16.52-16.53-16.52 0 0 0 74.32 0 74.32z"/><path fill="#DBD9DC" d="M388.13 437.68V512h24.77v-49.55c0-13.68-11.1-24.77-24.77-24.77z"/><path fill="#DC7346" d="M388.13 512H371.6v-57.8c0-9.13 7.4-16.52 16.53-16.52V512z"/></svg>