<svg xmlns="http://www.w3.org/2000/svg" viewBox="0 0 512 512"><path fill="#e3aa75" d="M432.9 366.17l-53.65-9.7c-4.97-.9-9.54-3.29-13.11-6.86l-28.56-28.55a24.78 24.78 0 01-7.26-17.52l.35-47.54H181.33l.35 47.54c0 6.57-2.61 12.87-7.26 17.52l-28.55 28.55a24.77 24.77 0 01-13.12 6.86l-53.66 9.7a66.06 66.06 0 00-54.32 65.01v56.04A24.77 24.77 0 0049.55 512h412.9a24.77 24.77 0 0024.78-24.78v-56.04a66.06 66.06 0 00-54.32-65.01z"/><path fill="#d29b6e" d="M181.57 288.55c20.84 15.8 46.66 25.26 74.43 25.26s53.59-9.46 74.43-25.26l.24-32.55H181.33l.24 32.55z"/><path fill="#a06e50" d="M346.84 0H165.16a33.03 33.03 0 00-33.03 33.03v140.39h247.74V33.03A33.03 33.03 0 00346.84 0z"/><path fill="#f5b97d" d="M366.3 156.9h-2.94c-9.13 0-16.52-7.4-16.52-16.51V115.6a33.03 33.03 0 00-33.03-33.03H198.19a33.03 33.03 0 00-33.03 33.03v24.78c0 9.12-7.4 16.51-16.51 16.51h-2.95c-10.8 0-20.64 7.77-21.72 18.52a20.65 20.65 0 0020.54 22.77h4.54c4.23 55.42 50.44 99.1 106.94 99.1s102.71-43.68 106.94-99.1h4.55a20.65 20.65 0 0020.53-22.77c-1.07-10.75-10.91-18.52-21.71-18.52z"/><g fill="#5a4650"><path d="M206.45 181.68a8.25 8.25 0 01-8.25-8.26v-8.26a8.25 8.25 0 1116.51 0v8.26c0 4.56-3.7 8.26-8.26 8.26zM305.55 181.68a8.25 8.25 0 01-8.26-8.26v-8.26a8.25 8.25 0 1116.52 0v8.26c0 4.56-3.7 8.26-8.26 8.26z"/></g><path fill="#b67f5f" d="M256 239.48c-12.4 0-23.82-3.97-30.57-10.63a8.26 8.26 0 1111.6-11.76c2.74 2.7 9.36 5.88 18.97 5.88s16.23-3.17 18.98-5.88a8.25 8.25 0 1111.6 11.76c-6.76 6.66-18.18 10.63-30.58 10.63z"/><g fill="#a06e50"><path d="M214.72 152.09c-.56 0-1.13-.06-1.7-.18l-16.51-3.44a8.24 8.24 0 01-6.4-9.77 8.21 8.21 0 019.77-6.4l16.52 3.45a8.25 8.25 0 01-1.68 16.34zM297.28 152.09a8.25 8.25 0 01-1.67-16.34l16.51-3.44a8.23 8.23 0 019.77 6.4 8.24 8.24 0 01-6.4 9.76l-16.51 3.44a8.1 8.1 0 01-1.7.18z"/></g><path fill="#d29b6e" d="M256 487.23a8.25 8.25 0 01-8.26-8.26v-24.78a8.25 8.25 0 1116.52 0v24.78c0 4.56-3.7 8.26-8.26 8.26z"/><path fill="#e3aa75" d="M181.68 189.94v-49.55a41.29 41.29 0 0141.29-41.3h119.29a32.89 32.89 0 00-28.45-16.5H198.19a33.03 33.03 0 00-33.03 33.02v24.78c0 9.12-7.4 16.51-16.51 16.51h-2.95c-10.8 0-20.64 7.77-21.72 18.52a20.65 20.65 0 0020.54 22.77h4.54c4.23 55.42 50.44 99.1 106.94 99.1 5.65 0 11.16-.55 16.57-1.4-51.45-7.93-90.9-52.28-90.9-105.95z"/><path fill="#b67f5f" d="M346.84 0H206.45v24.77a41.29 41.29 0 0041.3 41.3h132.12V33.02A33.03 33.03 0 00346.84 0z"/><path fill="#ffe17d" d="M123.87 512h264.26V358.08l-8.88-1.6c-4.97-.9-9.54-3.3-13.11-6.87l-11.04-11.03v33.03c0 54.73-44.37 99.1-99.1 99.1s-99.1-44.37-99.1-99.1v-33.03l-11.04 11.04a24.77 24.77 0 01-13.1 6.86l-8.89 1.6V512z"/><path fill="#d29b6e" d="M123.87 445.94V512H99.1v-41.29a24.77 24.77 0 0124.77-24.77z"/><path fill="#ffd164" d="M123.87 512h16.52v-49.55c0-9.12-7.4-16.51-16.52-16.51 0 0 0 66.06 0 66.06z"/><path fill="#d29b6e" d="M388.13 445.94V512h24.77v-41.29a24.77 24.77 0 00-24.77-24.77z"/><path fill="#ffd164" d="M388.13 512h-16.52v-49.55c0-9.12 7.4-16.51 16.52-16.51V512z"/></svg>