<svg xmlns="http://www.w3.org/2000/svg" viewBox="0 0 512 512" enable-background="new 0 0 512 512"><g fill="#5A4650"><circle cx="165.16" cy="222.97" r="90.84"/><circle cx="346.84" cy="222.97" r="90.84"/></g><path fill="#64505A" d="M256 0c-72.97 0-132.13 59.16-132.13 132.13v64.06h264.26v-64.07C388.13 59.16 328.97 0 256 0z"/><path fill="#E3AA75" d="M412.88 400.86l-85.3-30.1c-13.2-4.66-22.03-17.15-22.03-31.15v-67.08h-99.1v67.1c0 14-8.83 26.48-22.04 31.14l-85.28 30.1c-19.8 7-33.06 25.72-33.06 46.72v39.65c0 13.68 11.1 24.77 24.78 24.77h330.32c13.68 0 24.78-11.1 24.78-24.77v-39.65c0-21-13.25-39.73-33.06-46.72z"/><path fill="#FF8087" d="M412.88 400.86l-74.45-26.28c-1.58 44.22-37.83 79.6-82.43 79.6s-80.85-35.38-82.43-79.6l-74.45 26.28c-19.8 7-33.06 25.72-33.06 46.72v39.65c0 13.68 11.1 24.77 24.78 24.77h330.32c13.68 0 24.78-11.1 24.78-24.77v-39.65c0-21-13.25-39.73-33.06-46.72z"/><path fill="#D29B6E" d="M206.45 320.1c15.2 6.6 31.96 10.22 49.55 10.22s34.35-3.63 49.55-10.22v-31.07h-99.1v31.07z"/><path fill="#F5B97D" d="M367.48 173.42s-11.05-1.33-14.44-2.27c-18.76-5.2-59.38-21.4-90.15-68.84-3.25-5-10.55-5-13.8 0-30.76 47.43-71.38 63.66-90.14 68.85-3.4.94-14.44 2.27-14.44 2.27-12.1 0-21.78 10.42-20.54 22.77 1.07 10.74 10.9 18.5 21.7 18.5h3.38c4.23 55.43 50.44 99.1 106.94 99.1s102.7-43.67 106.94-99.1h3.37c10.8 0 20.65-7.76 21.72-18.5 1.24-12.36-8.43-22.78-20.54-22.78z"/><path fill="#E3AA75" d="M353.04 171.15c-18.74-5.2-59.3-21.38-90.05-68.7-3.3-5.05-10.7-5.06-13.98 0-21.25 32.68-47.16 50.5-67.34 60.12-9.04 4.3-16.93 6.98-22.72 8.58-3.4.94-14.44 2.27-14.44 2.27-12.1 0-21.78 10.4-20.54 22.77 1.07 10.74 10.9 18.5 21.7 18.5h3.38c4.23 55.43 50.44 99.1 106.94 99.1 5.63 0 11.12-.56 16.52-1.4-47.15-7.3-84.2-45.16-90.04-92.76-.87-7.07-.67-14.25.2-21.32.72-5.76 2.43-11.47 5.77-16.22 2.94-4.17 6.76-7.7 11.28-10.26C217.8 161.6 238 145.76 256 121.37c21.55 29.22 46.3 46.16 66.7 55.92 14.57 6.96 31.7 5.6 44.78-3.88 0 0-11.06-1.33-14.44-2.27z"/><g fill="#5A4650"><path d="M206.46 198.9c-4.57 0-8.26-3.7-8.26-8.25v-8.26c0-4.57 3.7-8.26 8.26-8.26 4.57 0 8.26 3.7 8.26 8.25v8.25c0 4.56-3.7 8.26-8.26 8.26zM305.56 198.9c-4.57 0-8.26-3.7-8.26-8.25v-8.26c0-4.57 3.7-8.26 8.26-8.26s8.25 3.7 8.25 8.25v8.25c0 4.56-3.68 8.26-8.24 8.26z"/></g><g fill="#FFD164"><path d="M305.54 330.32v-.26zM206.45 330.06v.26z"/></g><path fill="#6E5A64" d="M281.9 2.58c-5.96 13.06-9.38 27.54-9.38 42.84 0 57 46.2 103.22 103.22 103.22 4.2 0 8.32-.32 12.4-.8v-15.7c0-64.1-45.67-117.52-106.23-129.56z"/><path fill="#fff" d="M223.35 231.23c-2.6 0-4.53 2.37-4.1 4.94 2.68 15.9 18.12 28.1 36.75 28.1s34.07-12.2 36.75-28.1c.43-2.57-1.5-4.94-4.1-4.94h-65.3z"/><g fill="#A5CDFF"><path d="M445.94 487.23H66.06c0 13.68 11.1 24.77 24.78 24.77h330.32c13.68 0 24.77-11.1 24.77-24.77zM66.2 445.94h154c-11.92-5.77-22.22-14.3-30.1-24.78H73.86c-4.62 7.3-7.36 15.78-7.66 24.77zM438.15 421.16H321.9c-7.88 10.5-18.18 19-30.1 24.77h154c-.3-9-3.03-17.47-7.65-24.77z"/></g></svg>