<svg xmlns="http://www.w3.org/2000/svg" viewBox="0 0 512 512" enable-background="new 0 0 512 512"><path fill="#C9C6CA" d="M148.65 173.42h214.7v214.7h-214.7z"/><path fill="#A5CDFF" d="M412.88 392.98l-85.3-30.1c-13.2-4.67-22.03-17.15-22.03-31.15v-42.7h-99.1v42.7c0 14-8.83 26.48-22.04 31.14l-85.28 30.1c-19.8 7-33.05 25.72-33.05 46.73v47.53c0 13.68 11.1 24.77 24.77 24.77h330.32c13.68 0 24.78-11.1 24.78-24.77V439.7c0-21-13.25-39.73-33.06-46.72z"/><path fill="#8CB4EB" d="M256 495.48c64.76 0 117.38-51.44 119.54-115.68l-47.95-16.92c-13.22-4.67-22.05-17.15-22.05-31.15v-42.7h-99.1v42.7c0 14-8.83 26.48-22.04 31.15l-47.94 16.92c2.16 64.24 54.78 115.68 119.54 115.68z"/><path fill="#E3AA75" d="M256 478.97c57 0 103.23-46.22 103.23-103.23 0-.58-.08-1.15-.1-1.73L327.6 362.9c-13.22-4.67-22.05-17.15-22.05-31.15v-42.7h-99.1v42.7c0 14-8.83 26.48-22.04 31.14L152.87 374c0 .6-.08 1.16-.08 1.74 0 57 46.2 103.23 103.22 103.23z"/><path fill="#D29B6E" d="M305.55 319.9v-30.87h-99.1v30.88c15.2 6.67 31.93 10.42 49.55 10.42s34.36-3.75 49.55-10.4z"/><path fill="#F5B97D" d="M256 313.8c-59.3 0-107.35-48.06-107.35-107.35V99.1h214.7v107.35c0 59.3-48.06 107.36-107.35 107.36z"/><g fill="#5A4650"><path d="M206.45 198.9c-4.56 0-8.25-3.68-8.25-8.25v-8.26c0-4.57 3.7-8.26 8.25-8.26s8.26 3.7 8.26 8.25v8.25c0 4.57-3.68 8.26-8.25 8.26zM305.55 198.9c-4.57 0-8.26-3.68-8.26-8.25v-8.26c0-4.57 3.68-8.26 8.25-8.26 4.56 0 8.26 3.7 8.26 8.25v8.25c0 4.57-3.7 8.26-8.25 8.26z"/></g><path fill="#B67F5F" d="M256 256.72c-12.4 0-23.82-3.98-30.57-10.64-3.25-3.2-3.28-8.43-.08-11.68 3.2-3.25 8.44-3.28 11.67-.08 2.75 2.7 9.37 5.88 18.98 5.88 9.6 0 16.23-3.17 18.98-5.88 3.23-3.2 8.46-3.17 11.67.08 3.2 3.25 3.17 8.47-.08 11.68-6.75 6.66-18.17 10.64-30.57 10.64z"/><path fill="#E3AA75" d="M148.65 99.1v107.35c0 59.3 48.06 107.36 107.35 107.36 5.63 0 11.12-.56 16.52-1.4-51.43-7.96-90.84-52.3-90.84-105.95v-5.87c0-9.43 5.7-17.7 14.2-21.76 27.32-13 47.9-34.78 60.13-50.47 18.53 23.76 56.1 61.58 107.35 61.6V99.1h-214.7z"/><path fill="#DBD9DC" d="M148.65 375.5V189.1c0-8.16 5.73-15.5 13.8-16.77 43.14-6.82 73.9-44.05 86.8-62.65 1.65-2.37 4.2-3.56 6.76-3.56 2.56 0 5.1 1.2 6.76 3.56 12.9 18.6 43.66 55.83 86.8 62.65 8.08 1.28 13.8 8.6 13.8 16.78v186.4l33.03 11.66V140.4C396.4 62.84 333.53 0 256 0S115.6 62.85 115.6 140.4v246.76l33.05-11.66z"/><path fill="#EDEBED" d="M359.14 374L327.6 362.9c-4.26-1.5-7.98-3.87-11.17-6.78L256 396.4l-60.43-40.3c-3.2 2.9-6.9 5.28-11.16 6.77L152.87 374c0 .6-.08 1.16-.08 1.74 0 57 46.2 103.23 103.22 103.23s103.23-46.22 103.23-103.23c0-.58-.08-1.15-.1-1.73z"/><path fill="#DBD9DC" d="M352.74 371.75l-25.15-8.88c-4.26-1.5-7.98-3.86-11.17-6.77L256 396.4l-60.43-40.3c-3.2 2.9-6.9 5.28-11.16 6.77l-25.14 8.88c.22.67.4 1.34.7 2l26.96 60.65c3.98 8.94 12.87 14.7 22.66 14.7 5.77 0 11.4-2.03 15.84-5.73L256 417.9l30.58 25.47c4.45 3.7 10.07 5.74 15.84 5.74 9.8 0 18.7-5.76 22.66-14.7l26.96-60.66c.3-.65.48-1.32.7-2z"/><g fill="#fff"><path d="M204.03 344.42L256 396.4l-41.15 34.28c-4.2 3.5-10.6 2.02-12.84-3l-26.94-60.64c-1-2.22-.5-4.82 1.2-6.53l16.1-16.08c3.22-3.23 8.45-3.23 11.67 0zM307.97 344.42L256 396.4l41.16 34.28c4.2 3.5 10.6 2.02 12.83-3l26.95-60.64c.98-2.22.5-4.82-1.22-6.53l-16.08-16.08c-3.23-3.23-8.46-3.23-11.68 0z"/></g><g fill="#8CB4EB"><path d="M125.77 446.25L78.9 406.6c-3.76 4.14-6.73 8.92-8.9 14.1l45.1 38.16c5.58 4.7 8.77 11.6 8.77 18.9V512h16.52v-34.23c0-12.17-5.34-23.66-14.63-31.52zM386.24 446.25l46.87-39.66c3.76 4.14 6.73 8.92 8.9 14.1l-45.1 38.16c-5.58 4.7-8.77 11.6-8.77 18.9V512H371.6v-34.23c0-12.17 5.34-23.66 14.63-31.52z"/></g></svg>