<svg xmlns="http://www.w3.org/2000/svg" viewBox="0 0 512 512"><path fill="#b67f5f" d="M399.36 416.42l-102.07-36.55h-82.58l-102.07 36.55a57.8 57.8 0 00-38.32 54.42v16.39A24.77 24.77 0 0099.1 512h313.8a24.77 24.77 0 0024.78-24.77v-16.4a57.8 57.8 0 00-38.32-54.41z"/><path fill="#a06e50" d="M214.98 495.08l39.15-9.1a8.23 8.23 0 013.74 0l39.15 9.1c4.07.95 8.26 1.43 12.44 1.43 20.74 0 39.41-11.6 47.56-29.57a166.2 166.2 0 0014.3-60.56l-74.03-26.51h-82.58l-74.04 26.51a166.24 166.24 0 0014.31 60.56c8.15 17.96 26.82 29.57 47.56 29.57 4.18 0 8.37-.48 12.44-1.43z"/><path fill="#edebed" d="M354.78 388.98c-.42-6.7-5.13-12.53-11.93-14.74a197.36 197.36 0 00-59.52-9.19h-54.66c-20.19 0-40.26 3.1-59.51 9.19-6.8 2.2-11.52 8.05-11.94 14.74a148.8 148.8 0 0012.8 71.14c6.76 14.9 24.36 22.8 41.22 18.87l39.15-9.1c3.7-.85 7.53-.85 11.22 0l39.15 9.1c16.86 3.93 34.46-3.97 41.22-18.87a148.8 148.8 0 0012.8-71.14z"/><path fill="#dbd9dc" d="M283.33 365.05h-54.66c-15.85 0-31.62 1.98-47 5.75v17.33c0 36.43 33.35 66.06 74.33 66.06s74.32-29.63 74.32-66.06V370.8a197.3 197.3 0 00-47-5.75z"/><path fill="#e3aa75" d="M198.2 346.84v41.29c0 27.36 25.88 49.55 57.8 49.55 31.93 0 57.8-22.19 57.8-49.55v-41.3H198.2z"/><path fill="#d29b6e" d="M256 388.13c20.78 0 40.46-5.34 57.8-14.61v-26.68H198.2v26.68a122.42 122.42 0 0057.8 14.6z"/><path fill="#dbd9dc" d="M268.39 132.13H243.6a66.06 66.06 0 110-132.13h24.78a66.06 66.06 0 110 132.13z"/><path fill="#c9c6ca" d="M385.8 256a115.1 115.1 0 0027.1-74.32c0-63.85-51.76-115.62-115.61-115.62h-82.58c-63.85 0-115.61 51.77-115.61 115.62A115.1 115.1 0 00126.2 256h259.6z"/><path fill="#b7b2b8" d="M317.94 264.26H194.06a61.93 61.93 0 110-123.87h123.87a61.93 61.93 0 110 123.87z"/><path fill="#f5b97d" d="M366.3 231.23a11.2 11.2 0 01-11.2-11.21v-30.08a24.77 24.77 0 00-24.78-24.78H181.68a24.77 24.77 0 00-24.78 24.78v30.08c0 6.19-5.02 11.2-11.2 11.2-10.8 0-20.65 7.78-21.72 18.52a20.65 20.65 0 0020.54 22.78h4.54c4.23 55.41 50.44 99.1 106.94 99.1s102.7-43.69 106.94-99.1h4.54a20.65 20.65 0 0020.54-22.78c-1.07-10.74-10.91-18.51-21.71-18.51z"/><path fill="#e3aa75" d="M330.32 165.16H181.68a24.77 24.77 0 00-24.78 24.78v30.08c0 6.27-5.14 11.15-11.41 11.2-10.72.1-20.44 7.84-21.51 18.52a20.65 20.65 0 0020.54 22.77h4.54c4.23 55.42 50.44 99.1 106.94 99.1 5.65 0 11.16-.55 16.57-1.39-51.46-7.94-90.9-52.29-90.9-105.96V214.7a33.03 33.03 0 0133.04-33.03h99.1c9.12 0 16.51-7.4 16.51-16.52z"/><path fill="#b67f5f" d="M256 322.06c-12.38 0-23.82-3.97-30.57-10.63a8.26 8.26 0 1111.6-11.76c2.75 2.71 9.37 5.88 18.98 5.88s16.22-3.17 18.97-5.88a8.25 8.25 0 1111.6 11.76c-6.75 6.66-18.19 10.63-30.57 10.63z"/><g fill="#dbd9dc"><path d="M280.5 253.19a8.18 8.18 0 01-3.98-1.04c-10.03-5.54-30.54-5.62-40.8-.13a8.25 8.25 0 11-7.8-14.54c7.5-4.03 17.48-6.25 28.08-6.25 10.85 0 20.98 2.3 28.52 6.48a8.26 8.26 0 01-4.01 15.48zM206.45 239.5h-57.8a8.26 8.26 0 110-16.52h57.8a8.26 8.26 0 110 16.51zM363.36 239.48h-57.81a8.26 8.26 0 110-16.51h57.8a8.26 8.26 0 110 16.51z"/></g><path fill="#fff" d="M309.68 280.77h-8.26c-15.94 0-28.9-12.96-28.9-28.9s12.96-28.9 28.9-28.9h8.26c15.93 0 28.9 12.97 28.9 28.9s-12.97 28.9-28.9 28.9z"/><path fill="#e3aa75" d="M301.42 239.48a12.4 12.4 0 00-12.39 12.4 12.4 12.4 0 0012.39 12.38h8.26a12.4 12.4 0 000-24.77h-8.26z"/><path fill="#64505a" d="M309.68 239.48h-8.26c-1.46 0-2.83.3-4.13.77v7.5a8.26 8.26 0 0016.52 0v-7.5c-1.3-.47-2.68-.77-4.13-.77z"/><g fill="#a06e50"><path d="M134.34 471.81l-45.4-39.2a57.74 57.74 0 00-9.15 13.92l43.76 37.78a24.76 24.76 0 018.58 18.75V512h16.52v-8.94c0-12-5.22-23.4-14.31-31.25zM377.66 471.81l45.4-39.2a57.74 57.74 0 019.15 13.92l-43.76 37.78a24.76 24.76 0 00-8.58 18.75V512h-16.52v-8.94c0-12 5.22-23.4 14.31-31.25z"/></g><path fill="#fff" d="M210.58 280.77h-8.26c-15.93 0-28.9-12.96-28.9-28.9s12.97-28.9 28.9-28.9h8.26c15.94 0 28.9 12.97 28.9 28.9s-12.96 28.9-28.9 28.9z"/><path fill="#e3aa75" d="M202.32 239.48a12.4 12.4 0 00-12.38 12.4 12.4 12.4 0 0012.38 12.38h8.26a12.4 12.4 0 000-24.77h-8.26z"/><path fill="#64505a" d="M210.58 239.48h-8.26c-1.45 0-2.83.3-4.13.77v7.5a8.26 8.26 0 0016.52 0v-7.5c-1.3-.47-2.68-.77-4.13-.77z"/></svg>