<svg xmlns="http://www.w3.org/2000/svg" viewBox="0 0 512 512"><path fill="#5a4650" d="M136.58 189.94h238.85l10.19-66.26C395.62 58.65 345.3 0 279.52 0h-47.03c-65.8 0-116.11 58.65-106.1 123.68l10.19 66.25z"/><path fill="#b67f5f" d="M418.63 369.41l-87.04-25.6a24.77 24.77 0 01-17.78-23.77v-39.27H198.19v39.27a24.77 24.77 0 01-17.78 23.77l-87.03 25.6a49.55 49.55 0 00-35.57 47.53v70.29A24.77 24.77 0 0082.58 512h346.84a24.77 24.77 0 0024.77-24.77v-70.29a49.55 49.55 0 00-35.56-47.53z"/><path fill="#5a4650" d="M418.63 369.41l-87.04-25.6c-1.47-.43 8.32 3.7 6.99 3.03L256 371.6l-82.58-24.77c-1.33.67 8.46-3.46 6.99-3.03l-87.03 25.6a49.55 49.55 0 00-35.57 47.53v70.29A24.77 24.77 0 0082.58 512h346.84a24.77 24.77 0 0024.77-24.77v-70.29a49.55 49.55 0 00-35.56-47.53z"/><path fill="#a5cdff" d="M335.75 360.52l-9.85-9.85-69.9 12.68-69.9-12.68-9.85 9.85a66.06 66.06 0 00-19.35 46.72V512h198.2V407.24a66.06 66.06 0 00-19.35-46.72z"/><path fill="#8cb4eb" d="M335.75 360.52l-9.85-9.85-69.9 12.68-69.9-12.68-9.85 9.85a65.86 65.86 0 00-10.3 13.49l30.52 34.87a24.77 24.77 0 0036.16 1.2L256 386.71l23.37 23.37a24.77 24.77 0 0036.16-1.2L346.05 374a65.96 65.96 0 00-10.3-13.49z"/><path fill="#5a4650" d="M244.07 404.64L231.23 512h49.54l-12.84-107.36z"/><path fill="#64505a" d="M266.56 412.9h-21.12a8.26 8.26 0 01-7.84-5.64l-14.63-43.9h66.06l-14.63 43.9a8.26 8.26 0 01-7.84 5.64z"/><path fill="#a06e50" d="M198.2 299.2c17.34 9.27 37.02 14.6 57.8 14.6s40.46-5.33 57.8-14.6v-18.43H198.2v18.43z"/><g fill="#a5cdff"><path d="M192.68 328.18l-21.76 26.42L208.9 398a8.26 8.26 0 0012.05.4L256 363.36l-63.32-35.19zM319.32 328.18l21.76 26.42L303.1 398a8.26 8.26 0 01-12.05.4L256 363.36l63.32-35.19z"/></g><g fill="#64505a"><path d="M115.61 512l-14.54-57.21a16.52 16.52 0 014.44-15.27l26.62-26.62-12.25-18.37a16.86 16.86 0 01-1.86-14.69c19.7-59.17 80.17-74.3 80.17-74.3v15.94a41.29 41.29 0 01-12.09 29.2l-9.85 9.84a66.06 66.06 0 00-19.35 46.72V512M396.39 512l14.55-57.21a16.52 16.52 0 00-4.45-15.27l-26.62-26.62 12.25-18.37a16.86 16.86 0 001.86-14.69c-19.7-59.17-80.17-74.3-80.17-74.3v15.94a41.29 41.29 0 0012.1 29.2l9.84 9.84a66.07 66.07 0 0119.35 46.72V512"/></g><path fill="#cd916e" d="M366.76 156.9h-.36a15.7 15.7 0 01-15.32-19.1c6.3-28.34-15.26-55.22-44.3-55.22H205.22c-29.03 0-50.6 26.88-44.3 55.22a15.7 15.7 0 01-15.32 19.1h-.36c-9.4 0-18.18 5.96-20.62 15.04a20.71 20.71 0 0019.9 26.25h4.54c4.23 55.42 50.44 99.1 106.94 99.1s102.7-43.68 106.94-99.1h4.55a20.71 20.71 0 0019.89-26.25c-2.44-9.08-11.22-15.04-20.62-15.04z"/><path fill="#b67f5f" d="M181.68 189.94v-49.55a41.29 41.29 0 0141.29-41.3h66.06c9.12 0 16.52-7.39 16.52-16.5H205.22c-29.06 0-50.63 26.92-44.29 55.28a15.67 15.67 0 01-15.33 19.03h-.36c-9.4 0-18.18 5.96-20.62 15.04a20.71 20.71 0 0019.9 26.25h4.54c4.23 55.42 50.44 99.1 106.94 99.1 5.65 0 11.16-.55 16.57-1.39-51.45-7.94-90.9-52.29-90.9-105.96z"/><path fill="#64505a" d="M279.51 0H232.5c-9.02 0-17.71 1.2-26.04 3.27v4.99a57.8 57.8 0 0057.8 57.8h114.39C362.58 27.66 324.7 0 279.5 0z"/><g fill="#5a4650"><path d="M206.45 181.68a8.25 8.25 0 01-8.26-8.26v-8.26a8.25 8.25 0 1116.52 0v8.26c0 4.56-3.7 8.26-8.26 8.26zM305.55 181.68a8.25 8.25 0 01-8.26-8.26v-8.26a8.25 8.25 0 1116.52 0v8.26c0 4.56-3.7 8.26-8.26 8.26z"/></g><path fill="#a06e50" d="M256 239.48c-12.4 0-23.82-3.97-30.57-10.63a8.26 8.26 0 1111.6-11.76c2.74 2.7 9.36 5.88 18.97 5.88s16.22-3.17 18.97-5.88a8.25 8.25 0 1111.6 11.76c-6.75 6.66-18.18 10.63-30.57 10.63z"/><g fill="#64505a"><path d="M214.71 148.65H198.2a8.25 8.25 0 110-16.52h16.51a8.25 8.25 0 110 16.52zM313.8 148.65H297.3a8.25 8.25 0 110-16.52h16.52a8.25 8.25 0 110 16.52z"/></g></svg>