<svg xmlns="http://www.w3.org/2000/svg" viewBox="0 0 512 512" enable-background="new 0 0 512 512"><path fill="#FFD164" d="M256 0c-77.53 0-140.4 62.85-140.4 140.4v63.3c0 110.8 68.8 167.43 68.8 167.43h212V140.4C396.4 62.84 333.52 0 256 0z"/><path fill="#FFC350" d="M115.6 140.4v63.3c0 110.8 68.8 167.43 68.8 167.43H256V0c-77.53 0-140.4 62.85-140.4 140.4z"/><path fill="#F7D291" d="M412.88 401.24l-85.3-30.1c-13.2-4.67-22.03-17.15-22.03-31.16v-50.95h-99.1v50.95c0 14-8.83 26.5-22.04 31.15l-85.28 30.1c-19.8 7-33.06 25.72-33.06 46.73v39.27c0 13.68 11.1 24.77 24.78 24.77h330.32c13.68 0 24.77-11.1 24.77-24.77v-39.27c0-21-13.24-39.73-33.05-46.72z"/><path fill="#A5CDFF" d="M412.88 401.24l-70.98-25.06c-12.2 35.75-46 61.5-85.9 61.5s-73.7-25.75-85.9-61.5l-70.98 25.06c-19.8 7-33.06 25.7-33.06 46.72v39.27c0 13.68 11.1 24.77 24.78 24.77h330.32c13.68 0 24.78-11.1 24.78-24.77v-39.27c0-21-13.25-39.73-33.06-46.72z"/><path fill="#EDEBED" d="M256 470.7c54.27 0 100.28-34.95 117.02-83.53L341.9 376.2c-12.2 35.73-46 61.48-85.9 61.48s-73.7-25.75-85.9-61.5l-31.12 11c16.74 48.57 62.75 83.53 117.02 83.53z"/><path fill="#8CB4EB" d="M125.97 454.55L79.2 414.47c-3.8 4.12-6.8 8.87-9 14.03l45.02 38.6c5.5 4.7 8.65 11.56 8.65 18.8V512h16.52v-26.1c0-12.07-5.27-23.5-14.43-31.35z"/><path fill="#F0C382" d="M206.45 319.76c13.44 5.98 28.1 9.7 43.58 10.42 2 .1 4 .14 5.97.14 17.62 0 34.36-3.75 49.55-10.4V289h-99.1v30.74z"/><path fill="#FFE1A0" d="M366.3 173.42c-10.75 0-19.46-8.72-19.46-19.47V140.4c0-22.82-18.5-41.3-41.3-41.3h-99.1c-22.8 0-41.28 18.48-41.28 41.3v13.55c0 10.75-8.72 19.47-19.47 19.47-10.8 0-20.65 7.77-21.72 18.5-1.24 12.37 8.43 22.8 20.53 22.8h4.56c4.23 55.4 50.44 99.1 106.94 99.1s102.7-43.7 106.94-99.1h4.54c12.1 0 21.78-10.43 20.54-22.8-1.07-10.73-10.9-18.5-21.7-18.5z"/><path fill="#F7D291" d="M206.46 127.4c8.1-1.15 16.37 1.1 22.56 6.44 40.9 35.34 93.88 56.1 150.85 56.1 2.46 0 5.04-.07 7.7-.17-2.12-9.67-11.36-16.46-21.5-16.35-10.67.1-19.23-8.8-19.23-19.47V140.4c0-22.82-18.5-41.3-41.3-41.3h-99.1c-9.32 0-17.85 3.18-24.76 8.4v.04c-9.98 7.54-16.52 19.38-16.52 32.85v14.4c0 10.7-8.98 18.5-19.7 18.62-10.7.1-20.4 7.84-21.48 18.5-1.24 12.37 8.43 22.8 20.54 22.8h4.54c4.23 55.4 50.44 99.1 106.94 99.1 5.65 0 11.16-.56 16.57-1.4-51.46-7.95-90.9-52.3-90.9-105.97V156c0-14.38 10.57-26.56 24.8-28.6z"/><g fill="#6E5A64"><path d="M206.45 198.2c-4.56 0-8.26-3.7-8.26-8.26v-8.26c0-4.56 3.7-8.26 8.25-8.26s8.26 3.7 8.26 8.26v8.26c0 4.56-3.68 8.25-8.25 8.25zM305.55 198.2c-4.57 0-8.26-3.7-8.26-8.26v-8.26c0-4.56 3.68-8.26 8.25-8.26 4.56 0 8.26 3.7 8.26 8.26v8.26c0 4.56-3.7 8.25-8.25 8.25z"/></g><path fill="#E3AA75" d="M256 256c-12.4 0-23.82-3.98-30.57-10.64-3.25-3.2-3.3-8.43-.08-11.67 3.2-3.26 8.44-3.3 11.67-.1 2.75 2.72 9.37 5.88 18.98 5.88s16.22-3.16 18.97-5.87c3.24-3.2 8.48-3.16 11.68.1 3.2 3.23 3.17 8.46-.08 11.66C279.82 252.02 268.4 256 256 256z"/><path fill="#8CB4EB" d="M386.03 454.55l46.77-40.08c3.8 4.1 6.8 8.87 9 14.02l-45.03 38.6c-5.5 4.7-8.64 11.56-8.64 18.8V512H371.6v-26.1c0-12.07 5.27-23.5 14.43-31.35z"/><path fill="#E3AA75" d="M189.94 165.16c-3.46 0-6.68-2.2-7.84-5.64-1.44-4.33.9-9 5.22-10.45l24.78-8.26c4.36-1.45 9 .9 10.44 5.23s-.9 9-5.22 10.45l-24.77 8.26c-.87.3-1.75.42-2.62.42z"/><path fill="#FFE17D" d="M256 0c-29.87 0-57.5 9.4-80.26 25.3 28.03 85.97 108.8 148.12 204.13 148.12 5.56 0 11.06-.28 16.52-.7V140.4C396.4 62.84 333.52 0 256 0z"/><path fill="#FFD164" d="M305.55 313.8v33.04c0 72.92 57.8 99.1 57.8 165.16h33.04V313.8h-90.85z"/></svg>