<svg xmlns="http://www.w3.org/2000/svg" viewBox="0 0 512.01 512.01" enable-background="new 0 0 512.01 512.01"><path fill="#F7D291" d="M418.63 361.15l-87.03-25.6c-10.55-3.1-17.8-12.78-17.8-23.77v-39.26H198.2v39.26c0 11-7.24 20.67-17.78 23.77l-87.04 25.6c-21.1 6.2-35.57 25.56-35.57 47.54v62c0 13.7 11.1 41.3 24.8 41.3h346.83c13.68 0 24.77-27.6 24.77-41.3v-62c0-22-14.48-41.35-35.57-47.55z"/><path fill="#6E5A64" d="M418.63 361.15l-87.03-25.6c-1.48-.43 8.32 3.7 7 3.03L256 363.36l-82.57-24.78c-1.34.68 8.46-3.46 7-3.03l-87.05 25.6c-21.1 6.2-35.57 25.56-35.57 47.54v78.53C57.8 500.9 68.9 512 82.6 512H429.4c13.7 0 24.78-11.1 24.78-24.77V408.7c0-22-14.48-41.35-35.57-47.55z"/><path fill="#EDEBED" d="M335.75 352.26l-9.84-9.84-69.9 20.93-69.9-20.93-9.84 9.84c-12.4 12.4-19.35 29.2-19.35 46.72V512h198.2V398.98c0-17.52-6.96-34.33-19.35-46.72z"/><path fill="#fff" d="M235.36 363.36h41.3V512h-41.3z"/><path fill="#F0C382" d="M198.2 290.94c17.35 9.27 37.03 14.6 57.8 14.6s40.46-5.33 57.8-14.6v-18.42H198.2v18.43z"/><path fill="#FFE1A0" d="M371.62 149.06v-83L222.97 41.3 140.4 66.05v83c-9.43 1.9-16.52 10.24-16.52 20.23 0 11.4 9.24 20.63 20.64 20.63h4.55c4.23 55.42 50.43 99.1 106.94 99.1s102.72-43.68 106.95-99.1h4.54c11.4 0 20.64-9.24 20.64-20.64 0-10-7.1-18.33-16.52-20.24z"/><path fill="#F7D291" d="M227.44 74.74c27.86 13.78 83.1 36.65 144.18 40.3V66.07L222.97 41.3 140.4 66.05v83.3c-8.54 2.06-15.52 8.86-16.41 17.8-1.25 12.36 8.42 22.77 20.52 22.77h4.55c4.23 55.42 50.43 99.1 106.94 99.1 5.66 0 11.16-.55 16.58-1.4-51.46-7.93-90.9-52.28-90.9-105.95v-65.63c0-9.64 5.54-18.44 14.32-22.42 10.12-4.6 20.84-10.7 31.44-18.9z"/><g fill="#6E5A64"><path d="M206.46 174.14c-4.57 0-8.26-3.7-8.26-8.26v-8.26c0-4.56 3.7-8.26 8.26-8.26s8.26 3.7 8.26 8.26v8.26c0 4.56-3.7 8.26-8.26 8.26zM305.56 174.14c-4.57 0-8.26-3.7-8.26-8.26v-8.26c0-4.56 3.7-8.26 8.26-8.26s8.25 3.7 8.25 8.26v8.26c0 4.56-3.68 8.26-8.25 8.26z"/></g><g fill="#A06E50"><path d="M214.72 140.4H198.2c-4.56 0-8.26-3.7-8.26-8.27s3.7-8.26 8.26-8.26h16.52c4.56 0 8.26 3.7 8.26 8.26s-3.7 8.26-8.26 8.26zM313.8 140.4h-16.5c-4.57 0-8.26-3.7-8.26-8.27s3.7-8.26 8.26-8.26h16.5c4.58 0 8.27 3.7 8.27 8.26s-3.7 8.26-8.26 8.26z"/></g><path fill="#64505A" d="M115.62 512l-14.55-65.47c-1.22-5.5.45-11.27 4.45-15.26l26.62-26.62-12.25-18.38c-2.9-4.32-3.5-9.75-1.87-14.68 19.7-59.2 80.17-74.3 80.17-74.3v15.92c0 10.95-4.35 21.45-12.1 29.2l-9.84 9.84c-12.4 12.4-19.35 29.2-19.35 46.72V512"/><path fill="#E3AA75" d="M256 231.23c-12.38 0-23.82-3.98-30.57-10.64-3.25-3.2-3.28-8.44-.08-11.7 3.2-3.24 8.45-3.27 11.68-.07 2.75 2.72 9.37 5.88 18.98 5.88 9.6 0 16.23-3.15 18.98-5.87 3.24-3.2 8.48-3.17 11.68.08 3.2 3.26 3.17 8.5-.08 11.7-6.75 6.65-18.2 10.63-30.57 10.63z"/><path fill="#A06E50" d="M388.13 82.58c0-45.6-36.97-82.58-82.57-82.58h-99.1c-36.5 0-66.07 29.58-66.07 66.06v24.78s39.22-.07 76.96-29.18c4.9-3.77 11.5-4.4 17.05-1.7 28.48 13.88 84.47 37 145.3 39 4.62.15 8.44-3.67 8.44-8.3v-8.08z"/><path fill="#B67F5F" d="M388.06 81.14C387.3 36.2 350.68 0 305.56 0h-94.83c22.3 25.52 76.44 72.48 177.33 81.14z"/><path fill="#64505A" d="M396.4 512l14.54-65.47c1.23-5.5-.45-11.27-4.44-15.26l-26.62-26.62 12.24-18.38c2.9-4.32 3.5-9.75 1.86-14.68-19.7-59.2-80.17-74.3-80.17-74.3v15.92c0 10.95 4.36 21.45 12.1 29.2l9.85 9.84c12.4 12.4 19.35 29.2 19.35 46.72V512"/><g fill="#E6646E"><path d="M313.7 392.2L256 363.37l57.7-28.86c5.87-2.93 12.76 1.33 12.76 7.88v41.95c0 6.55-6.9 10.8-12.75 7.88zM198.3 392.2l57.7-28.84-57.7-28.86c-5.86-2.93-12.75 1.33-12.75 7.88v41.95c0 6.55 6.9 10.8 12.75 7.88z"/></g><path fill="#DC4655" d="M260.13 375.74h-8.25c-4.56 0-8.26-3.7-8.26-8.26v-8.25c0-4.56 3.7-8.26 8.26-8.26h8.25c4.57 0 8.26 3.7 8.26 8.26v8.25c0 4.56-3.7 8.26-8.26 8.26z"/><g fill="#EDEBED"><circle cx="256.007" cy="412.9" r="8.258"/><circle cx="256.007" cy="478.97" r="8.258"/></g></svg>